# Blender v2.91.0 OBJ File: ''
# www.blender.org
o Cube_Cube.001
v -1.000000 1.000000 0.000000
v -1.000000 -1.000000 -2.000000
v -1.000000 -1.000000 -0.000000
v -1.000000 1.000000 -2.000000
v 1.000000 -1.000000 -2.000000
v 1.000000 -1.000000 -0.000000
v 2.000000 1.000000 0.000000
v 1.000000 1.000000 0.000000
v -1.000000 2.000000 0.000000
v 3.000000 0.300000 -1.300000
v 2.000000 1.000000 -2.000000
v 2.000000 -1.000000 -0.000000
v 1.000000 1.000000 -2.000000
v 2.000000 -1.000000 -2.000000
v 3.000000 0.300000 -0.700000
v 5.000000 0.300000 -1.300000
v 3.000000 -0.300000 -1.300000
v 3.000000 -0.300000 -0.700000
v 5.000000 -0.300000 -0.700000
v 6.000000 0.300000 -0.700000
v 5.000000 0.300000 -0.700000
v 5.000000 -0.300000 -1.300000
v 6.000000 0.300000 -1.300000
v 6.000000 -0.300000 -0.700000
v 6.000000 -0.300000 -1.300000
v 6.000000 3.300000 -0.700000
v 5.000000 0.300000 -6.300000
v 5.000000 3.300000 -0.700000
v 6.000000 3.300000 -1.300000
v 5.000000 3.300000 -1.300000
v 1.000000 2.000000 0.000000
v -0.500000 3.000000 -0.500000
v 1.000000 2.000000 -2.000000
v -1.000000 2.000000 -2.000000
v 0.500000 3.000000 -1.500000
v 0.500000 4.000000 -0.500000
v 0.500000 3.000000 -0.500000
v -0.500000 3.000000 -1.500000
v -0.500000 5.000000 -0.500000
v -0.500000 4.000000 -0.500000
v -0.500000 4.000000 -1.500000
v 0.500000 4.000000 -1.500000
v -0.500000 5.000000 -1.500000
v 0.500000 5.000000 -0.500000
v 0.500000 5.000000 -1.500000
v 6.000000 0.300000 -6.300000
v -4.500000 5.000000 -1.500000
v -4.500000 5.000000 -0.500000
v -5.500000 4.000000 -0.500000
v -4.500000 4.000000 -0.500000
v -4.500000 4.000000 -1.500000
v -5.500000 5.000000 -1.500000
v -5.500000 4.000000 -1.500000
v -4.500000 -1.000000 -0.500000
v -4.500000 5.000000 -6.500000
v -5.500000 5.000000 -0.500000
v -5.500000 -1.000000 -1.500000
v -4.500000 -1.000000 -1.500000
v -5.500000 -1.000000 -0.500000
v 5.000000 -0.300000 -7.300000
v 5.000000 -0.300000 -6.300000
v -5.500000 4.000000 -6.500000
v -4.500000 4.000000 -7.500000
v -4.500000 4.000000 -6.500000
v 5.000000 0.300000 -7.300000
v 6.000000 4.300001 -7.300000
v 6.000000 0.300000 -7.300000
v -0.500000 5.000000 -6.500000
v -5.500000 5.000000 -6.500000
v -0.500000 4.000000 -6.500000
v 0.500000 4.000000 -6.500000
v 6.000000 -0.300000 -6.300000
v 0.500000 5.000000 -6.500000
v 6.000000 -0.300000 -7.300000
v -0.500000 4.000000 -7.500000
v 0.500000 5.000000 -7.500000
v 0.500000 4.000000 -7.500000
v -5.500000 5.000000 -7.500000
v -4.500000 5.000000 -7.500000
v -0.500000 -1.000000 -6.500000
v -3.500000 5.000000 -7.500000
v -0.500000 5.000000 -7.500000
v -5.500000 4.000000 -7.500000
v 0.500000 -1.000000 -7.500000
v 0.500000 -1.000000 -6.500000
v -0.500000 -1.000000 -7.500000
v 5.000000 4.300001 -7.300000
v 6.000000 5.300001 -7.300000
v 5.000000 4.300001 -6.300000
v 6.000000 4.300001 -6.300000
v 6.000000 5.300001 -6.300000
v 5.000000 5.300001 -7.300000
v 5.000000 5.300001 -6.300000
v 3.000000 5.300001 -7.300000
v 3.000000 5.300001 -6.300000
v 2.000000 4.300001 -6.300000
v 3.000000 4.300001 -6.300000
v 3.000000 4.300001 -7.300000
v 2.000000 5.300001 -7.300000
v 2.000000 4.300001 -7.300000
v 2.000000 5.300001 -6.300000
v 2.000000 5.300001 -9.300000
v 3.000000 5.300001 -9.300000
v 2.000000 7.300001 -9.300000
v 2.000000 4.300001 -9.300000
v 3.000000 4.300001 -9.300000
v 3.000000 4.300001 -10.300000
v 2.000000 5.300001 -10.300000
v 3.000000 5.300001 -10.300000
v 2.000000 4.300001 -10.300000
v 3.000000 7.300001 -9.300000
v 2.000000 7.300001 -10.300000
v 3.000000 7.300001 -10.300000
v -3.500000 4.000000 -6.500000
v -2.500000 5.000000 -6.500000
v -3.500000 5.000000 -6.500000
v -3.500000 4.000000 -7.500000
v -2.500000 4.000000 -6.500000
v -2.500000 5.000000 -7.500000
v -2.500000 4.000000 -7.500000
v -2.500000 2.000000 -6.500000
v -3.500000 2.000000 -7.500000
v -3.500000 2.000000 -6.500000
v -2.500000 2.000000 -7.500000
vt 0.937617 0.402672
vt 0.859508 0.480762
vt 0.937617 0.480762
vt 0.312784 0.812337
vt 0.234692 0.734228
vt 0.234692 0.812337
vt 0.234692 0.195273
vt 0.156601 0.156219
vt 0.156601 0.195273
vt 0.234692 0.273383
vt 0.429965 0.206990
vt 0.508075 0.285099
vt 0.508075 0.206990
vt 0.117555 0.273383
vt 0.156601 0.273383
vt 0.898476 0.909974
vt 0.847705 0.870919
vt 0.820367 0.909974
vt 0.390911 0.285099
vt 0.429965 0.285099
vt 0.898476 0.949028
vt 0.820367 0.949028
vt 0.312784 0.734228
vt 0.234692 0.695173
vt 0.871138 0.870919
vt 0.847705 0.792810
vt 0.312784 0.695173
vt 0.262609 0.656118
vt 0.234692 0.156219
vt 0.183348 0.117164
vt 0.390911 0.206990
vt 0.351856 0.257761
vt 0.206775 0.039055
vt 0.183348 0.000000
vt 0.183348 0.039055
vt 0.286037 0.656118
vt 0.262609 0.578009
vt 0.206775 0.117164
vt 0.351856 0.234328
vt 0.273747 0.257761
vt 0.703299 0.234328
vt 0.726726 0.257761
vt 0.726726 0.234328
vt 0.273747 0.234328
vt 0.234692 0.257761
vt 0.586164 0.257761
vt 0.703299 0.257761
vt 0.960946 0.753755
vt 0.921891 0.558482
vt 0.921891 0.753755
vt 0.430339 0.695144
vt 0.453771 0.734199
vt 0.453771 0.695144
vt 0.390902 0.812337
vt 0.429957 0.929474
vt 0.429957 0.812337
vt 0.430339 0.578009
vt 0.453771 0.578009
vt 0.066211 0.039055
vt 0.117555 0.195273
vt 0.078092 0.253855
vt 0.351829 0.734228
vt 0.312343 0.363208
vt 0.351388 0.285099
vt 0.312343 0.285099
vt 0.859508 0.363627
vt 0.859508 0.402672
vt 0.390871 0.343681
vt 0.429916 0.304626
vt 0.390871 0.304626
vt 0.351829 0.812337
vt 0.391293 0.753755
vt 0.351388 0.363208
vt 0.937617 0.363627
vt 0.879035 0.324144
vt 0.039046 0.214801
vt 0.000000 0.253855
vt 0.039046 0.253855
vt 0.918090 0.324144
vt 0.879035 0.285099
vt 0.078092 0.214801
vt 0.391293 0.792810
vt 0.430339 0.753755
vt 0.664235 0.519427
vt 0.703289 0.558482
vt 0.703289 0.519427
vt 0.703299 0.039055
vt 0.429916 0.343681
vt 0.468961 0.304626
vt 0.390902 0.968555
vt 0.351856 0.812337
vt 0.351856 0.968555
vt 0.000000 0.410074
vt 0.039046 0.449129
vt 0.039046 0.410074
vt 0.508016 0.558482
vt 0.664235 0.558482
vt 0.312802 0.812337
vt 0.351856 0.968556
vt 0.351856 0.812337
vt 0.195224 0.722511
vt 0.234269 0.683456
vt 0.195224 0.683456
vt 0.234274 0.410074
vt 0.999990 0.753755
vt 0.960945 0.558482
vt 0.960945 0.753755
vt 0.508016 0.519427
vt 0.468961 0.558482
vt 0.781398 0.519382
vt 0.820453 0.480328
vt 0.781398 0.480328
vt 0.960945 0.753755
vt 1.000000 0.948979
vt 0.961054 0.195229
vt 0.921999 0.000000
vt 0.921999 0.195229
vt 0.000000 0.722511
vt 0.726657 0.597537
vt 0.703230 0.558482
vt 0.703230 0.597537
vt 0.921999 0.039055
vt 0.882944 0.000000
vt 0.882944 0.039055
vt 0.804835 0.023427
vt 0.843890 0.179610
vt 0.843890 0.023427
vt 0.664235 0.324154
vt 0.921999 0.234328
vt 0.882944 0.234328
vt 0.195224 0.488183
vt 0.468961 0.324154
vt 0.468961 0.519427
vt 0.468961 0.558482
vt 0.508006 0.753755
vt 0.508006 0.558482
vt 0.726657 0.792809
vt 0.703230 0.792809
vt 0.960945 0.949028
vt 0.921891 0.753755
vt 0.921891 0.949028
vt 0.234692 0.039055
vt 0.234692 0.234328
vt 0.468961 0.538954
vt 0.468961 0.343681
vt 0.843890 0.000000
vt 0.804835 0.000000
vt 0.882836 0.753710
vt 0.921891 0.792756
vt 0.921891 0.753710
vt 0.664187 0.870919
vt 0.703233 0.909974
vt 0.703233 0.870919
vt 0.429916 0.538954
vt 0.468961 0.578009
vt 0.508006 0.792810
vt 0.703230 0.753755
vt 0.508016 0.324154
vt 0.468961 0.285099
vt 0.726726 0.039055
vt 0.703299 0.000000
vt 0.547071 0.285099
vt 0.508016 0.285099
vt 0.703289 0.324154
vt 0.664235 0.285099
vt 0.273747 0.039055
vt 0.234692 0.000000
vt 0.234269 0.488183
vt 0.195224 0.449129
vt 0.468961 0.753755
vt 0.781398 0.558437
vt 0.820453 0.519382
vt 0.781398 0.519382
vt 0.234692 0.578009
vt 0.429916 0.578009
vt 0.882836 0.558482
vt 0.937617 0.285099
vt 0.976672 0.480328
vt 0.976672 0.285099
vt 0.804835 0.179610
vt 0.843890 0.218656
vt 0.703289 0.285099
vt 0.742344 0.441282
vt 0.742344 0.285099
vt 0.547120 0.039055
vt 0.882836 0.558482
vt 0.726657 0.558482
vt 0.117164 0.878730
vt 0.156219 0.839675
vt 0.117164 0.839675
vt 0.547120 0.000000
vt 0.508075 0.039055
vt 0.703289 0.441282
vt 0.742344 0.480328
vt 0.726726 0.218656
vt 0.804835 0.218656
vt 0.820453 0.480328
vt 0.859508 0.441282
vt 0.820453 0.441282
vt 0.117164 0.761566
vt 0.000000 0.878730
vt 0.078109 0.839675
vt 0.000000 0.839675
vt 0.468961 0.949028
vt 0.508006 0.909973
vt 0.468961 0.909973
vt 0.156219 0.761566
vt 0.117164 0.722511
vt 0.234328 0.722511
vt 0.156219 0.722511
vt 0.078109 0.878730
vt 0.117164 0.839675
vt 0.742344 0.558419
vt 0.703289 0.480328
vt 0.703289 0.558419
vt 0.468961 0.831864
vt 0.078109 0.761566
vt 0.703233 0.792810
vt 0.742278 0.870919
vt 0.742278 0.792810
vt 0.039055 0.878730
vt 0.000000 0.917776
vt 0.039055 0.917776
vt 0.703233 0.870919
vt 0.742278 0.909974
vt 0.117164 0.761566
vt 0.078109 0.722511
vt 0.508006 0.831864
vt 0.468961 0.792809
vt 0.765780 0.257711
vt 0.804835 0.218656
vt 0.765780 0.218656
vt 0.586096 0.792809
vt 0.508006 0.792809
vt 0.820367 0.870919
vt 0.039055 0.995867
vt 0.273747 0.890429
vt 0.234692 0.929474
vt 0.273747 0.929474
vt 0.664187 0.831864
vt 0.312801 0.890429
vt 0.312801 0.929474
vt 0.843890 0.039055
vt 0.078110 0.956820
vt 0.039055 0.995864
vt 0.078110 0.995864
vt 0.547071 0.324154
vt 0.586125 0.285099
vt 0.703233 0.831864
vt 0.664187 0.792810
vt 0.234692 0.812337
vt 0.234692 0.890429
vt 0.765780 0.218656
vt 0.726726 0.257711
vt 0.765780 0.257711
vt 0.039055 0.878730
vt 0.039055 0.956820
vt 0.586095 0.831864
vt 0.781399 0.558417
vt 0.742344 0.480328
vt 0.742344 0.558417
vt 0.871138 0.792810
vt 0.206775 0.000000
vt 0.286037 0.578009
vt 0.586164 0.234328
vt 0.960946 0.558482
vt 0.430339 0.734199
vt 0.390902 0.929474
vt 0.066211 0.000000
vt 0.000000 0.214801
vt 0.918090 0.285099
vt 0.430339 0.792810
vt 0.390902 0.812337
vt 0.000000 0.449129
vt 0.312802 0.968556
vt 0.234269 0.722511
vt 0.234274 0.449129
vt 0.999990 0.558482
vt 0.820453 0.519382
vt 0.960945 0.948979
vt 0.961054 0.000000
vt 0.000000 0.683456
vt 0.921999 0.000000
vt 0.960945 0.753755
vt 0.882836 0.792756
vt 0.664187 0.909974
vt 0.703230 0.792810
vt 0.726726 0.000000
vt 0.703289 0.285099
vt 0.273747 0.000000
vt 0.234269 0.449129
vt 0.468961 0.792810
vt 0.820453 0.558437
vt 0.234692 0.538954
vt 0.921891 0.558482
vt 0.937617 0.480328
vt 0.882836 0.597537
vt 0.156219 0.878730
vt 0.508075 0.000000
vt 0.703289 0.480328
vt 0.726726 0.179610
vt 0.859508 0.480328
vt 0.508006 0.949028
vt 0.234328 0.761566
vt 0.117164 0.878730
vt 0.742344 0.480328
vt 0.000000 0.878730
vt 0.703233 0.909974
vt 0.117164 0.722511
vt 0.804835 0.257711
vt 0.586096 0.831864
vt 0.820367 0.909974
vt 0.000000 0.995867
vt 0.843890 0.000000
vt 0.586125 0.324154
vt 0.703233 0.792810
vt 0.273747 0.812337
vt 0.726726 0.218656
vt 0.078110 0.878730
vt 0.586095 0.792810
vt 0.781399 0.480328
vn -1.0000 -0.0000 0.0000
vn 0.0000 0.0000 -1.0000
vn 0.0000 -0.0000 1.0000
vn 0.0000 -1.0000 -0.0000
vn 0.5735 0.8192 0.0000
vn 0.0000 1.0000 0.0000
vn 0.5735 0.0000 -0.8192
vn 0.5735 -0.0000 0.8192
vn 0.5735 -0.8192 0.0000
vn 1.0000 0.0000 0.0000
vn 0.0000 0.4472 0.8944
vn 0.0000 0.4472 -0.8944
vn 0.8944 0.4472 0.0000
vn -0.8944 0.4472 0.0000
s 1
f 1/1/1 2/2/1 3/3/1
f 4/4/2 5/5/2 2/6/2
f 6/7/3 7/8/3 8/9/3
f 8/9/3 3/10/3 6/7/3
f 5/11/4 3/12/4 2/13/4
f 8/9/3 9/14/3 1/15/3
f 7/16/5 10/17/5 11/18/5
f 5/11/4 12/19/4 6/20/4
f 8/21/6 11/18/6 13/22/6
f 13/23/2 14/24/2 5/5/2
f 15/25/6 16/26/6 10/17/6
f 11/27/7 17/28/7 14/24/7
f 12/29/8 15/30/8 7/8/8
f 14/31/9 18/32/9 12/19/9
f 19/33/3 20/34/3 21/35/3
f 10/36/2 22/37/2 17/28/2
f 18/38/3 21/35/3 15/30/3
f 17/39/4 19/40/4 18/32/4
f 23/41/10 24/42/10 25/43/10
f 22/44/4 24/45/4 19/40/4
f 23/41/10 26/46/10 20/47/10
f 23/48/6 27/49/6 16/50/6
f 28/51/6 29/52/6 30/53/6
f 16/54/2 29/55/2 23/56/2
f 21/57/1 30/53/1 16/58/1
f 20/34/3 28/59/3 21/35/3
f 31/60/11 32/61/11 9/14/11
f 4/4/2 33/62/2 13/23/2
f 13/63/10 31/64/10 8/65/10
f 1/1/1 34/66/1 4/67/1
f 35/68/10 36/69/10 37/70/10
f 34/71/12 35/72/12 33/62/12
f 33/73/13 37/70/13 31/64/13
f 9/74/14 38/75/14 34/66/14
f 36/76/3 39/77/3 40/78/3
f 32/79/1 41/80/1 38/75/1
f 37/81/3 40/78/3 32/61/3
f 38/82/2 42/83/2 35/72/2
f 43/84/6 44/85/6 45/86/6
f 25/43/10 46/87/10 23/41/10
f 42/88/10 44/89/10 36/69/10
f 41/90/2 47/91/2 43/92/2
f 48/93/3 49/94/3 50/95/3
f 43/84/6 48/96/6 39/97/6
f 39/77/3 50/95/3 40/78/3
f 40/98/4 51/99/4 41/100/4
f 49/101/1 52/102/1 53/103/1
f 49/94/3 54/104/3 50/95/3
f 51/105/10 55/106/10 47/107/10
f 47/108/6 56/109/6 48/96/6
f 54/110/4 57/111/4 58/112/4
f 50/113/10 58/114/10 51/105/10
f 51/115/2 57/116/2 53/117/2
f 53/103/1 59/118/1 49/101/1
f 27/119/1 60/120/1 61/121/1
f 62/122/4 63/123/4 64/124/4
f 65/125/2 66/126/2 67/127/2
f 45/86/6 68/128/6 43/84/6
f 53/129/4 64/124/4 51/130/4
f 52/102/1 62/131/1 53/103/1
f 47/108/6 69/132/6 52/133/6
f 43/134/1 70/135/1 41/136/1
f 16/137/1 61/121/1 22/138/1
f 41/139/4 71/140/4 42/141/4
f 22/44/4 72/142/4 25/143/4
f 42/88/10 73/144/10 45/145/10
f 65/125/2 74/146/2 60/147/2
f 75/148/2 76/149/2 77/150/2
f 63/151/2 78/152/2 79/153/2
f 71/154/10 76/155/10 73/144/10
f 75/156/1 80/157/1 70/135/1
f 55/158/6 78/159/6 69/132/6
f 72/160/10 67/161/10 46/87/10
f 55/158/6 81/162/6 79/163/6
f 73/164/6 82/165/6 68/128/6
f 61/166/4 74/167/4 72/142/4
f 69/168/1 83/169/1 62/131/1
f 68/170/1 75/156/1 70/135/1
f 80/171/4 84/172/4 85/173/4
f 71/154/10 84/174/10 77/175/10
f 77/150/2 86/176/2 75/148/2
f 70/177/3 85/178/3 71/179/3
f 87/180/2 88/181/2 66/126/2
f 46/182/3 89/183/3 27/184/3
f 67/161/10 90/185/10 46/87/10
f 27/119/1 87/186/1 65/187/1
f 91/188/6 92/189/6 93/190/6
f 66/191/10 91/192/10 90/185/10
f 90/193/3 93/194/3 89/183/3
f 87/180/2 94/195/2 92/196/2
f 95/197/3 96/198/3 97/199/3
f 93/194/3 97/199/3 89/183/3
f 92/189/6 95/200/6 93/190/6
f 89/201/4 98/202/4 87/203/4
f 96/204/1 99/205/1 100/206/1
f 94/207/6 101/208/6 95/200/6
f 94/207/6 102/209/6 99/210/6
f 97/211/4 100/212/4 98/202/4
f 103/213/3 104/214/3 102/215/3
f 99/205/1 105/216/1 100/206/1
f 100/212/4 106/217/4 98/202/4
f 98/218/10 103/219/10 94/220/10
f 107/221/2 108/222/2 109/223/2
f 106/224/10 109/225/10 103/219/10
f 105/226/4 107/227/4 106/217/4
f 102/228/1 110/229/1 105/216/1
f 111/230/6 112/231/6 104/232/6
f 102/228/1 112/233/1 108/234/1
f 109/225/10 111/235/10 103/219/10
f 108/222/2 113/236/2 109/223/2
f 114/237/3 115/238/3 116/239/3
f 79/153/2 117/240/2 63/151/2
f 64/241/3 116/239/3 55/242/3
f 63/123/4 114/243/4 64/124/4
f 118/244/10 119/245/10 115/246/10
f 116/247/6 119/248/6 81/162/6
f 81/249/2 120/250/2 117/240/2
f 114/237/3 121/251/3 118/252/3
f 122/253/4 121/254/4 123/255/4
f 118/244/10 124/256/10 120/257/10
f 120/250/2 122/258/2 117/240/2
f 117/259/1 123/260/1 114/261/1
f 1/1/1 4/67/1 2/2/1
f 4/4/2 13/23/2 5/5/2
f 6/7/3 12/29/3 7/8/3
f 8/9/3 1/15/3 3/10/3
f 5/11/4 6/20/4 3/12/4
f 8/9/3 31/60/3 9/14/3
f 7/16/5 15/25/5 10/17/5
f 5/11/4 14/31/4 12/19/4
f 8/21/6 7/16/6 11/18/6
f 13/23/2 11/27/2 14/24/2
f 15/25/6 21/262/6 16/26/6
f 11/27/7 10/36/7 17/28/7
f 12/29/8 18/38/8 15/30/8
f 14/31/9 17/39/9 18/32/9
f 19/33/3 24/263/3 20/34/3
f 10/36/2 16/264/2 22/37/2
f 18/38/3 19/33/3 21/35/3
f 17/39/4 22/44/4 19/40/4
f 23/41/10 20/47/10 24/42/10
f 22/44/4 25/143/4 24/45/4
f 23/41/10 29/265/10 26/46/10
f 23/48/6 46/266/6 27/49/6
f 28/51/6 26/267/6 29/52/6
f 16/54/2 30/268/2 29/55/2
f 21/57/1 28/51/1 30/53/1
f 20/34/3 26/269/3 28/59/3
f 31/60/11 37/81/11 32/61/11
f 4/4/2 34/71/2 33/62/2
f 13/63/10 33/73/10 31/64/10
f 1/1/1 9/74/1 34/66/1
f 35/68/10 42/88/10 36/69/10
f 34/71/12 38/82/12 35/72/12
f 33/73/13 35/68/13 37/70/13
f 9/74/14 32/79/14 38/75/14
f 36/76/3 44/270/3 39/77/3
f 32/79/1 40/271/1 41/80/1
f 37/81/3 36/76/3 40/78/3
f 38/82/2 41/272/2 42/83/2
f 43/84/6 39/97/6 44/85/6
f 25/43/10 72/160/10 46/87/10
f 42/88/10 45/145/10 44/89/10
f 41/90/2 51/273/2 47/91/2
f 48/93/3 56/274/3 49/94/3
f 43/84/6 47/108/6 48/96/6
f 39/77/3 48/93/3 50/95/3
f 40/98/4 50/275/4 51/99/4
f 49/101/1 56/276/1 52/102/1
f 49/94/3 59/277/3 54/104/3
f 51/105/10 64/278/10 55/106/10
f 47/108/6 52/133/6 56/109/6
f 54/110/4 59/279/4 57/111/4
f 50/113/10 54/280/10 58/114/10
f 51/115/2 58/281/2 57/116/2
f 53/103/1 57/282/1 59/118/1
f 27/119/1 65/187/1 60/120/1
f 62/122/4 83/283/4 63/123/4
f 65/125/2 87/180/2 66/126/2
f 45/86/6 73/164/6 68/128/6
f 53/129/4 62/122/4 64/124/4
f 52/102/1 69/168/1 62/131/1
f 47/108/6 55/158/6 69/132/6
f 43/134/1 68/170/1 70/135/1
f 16/137/1 27/119/1 61/121/1
f 41/139/4 70/284/4 71/140/4
f 22/44/4 61/166/4 72/142/4
f 42/88/10 71/154/10 73/144/10
f 65/125/2 67/127/2 74/146/2
f 75/148/2 82/285/2 76/149/2
f 63/151/2 83/286/2 78/152/2
f 71/154/10 77/175/10 76/155/10
f 75/156/1 86/287/1 80/157/1
f 55/158/6 79/163/6 78/159/6
f 72/160/10 74/288/10 67/161/10
f 55/158/6 116/247/6 81/162/6
f 73/164/6 76/289/6 82/165/6
f 61/166/4 60/290/4 74/167/4
f 69/168/1 78/291/1 83/169/1
f 68/170/1 82/292/1 75/156/1
f 80/171/4 86/293/4 84/172/4
f 71/154/10 85/294/10 84/174/10
f 77/150/2 84/295/2 86/176/2
f 70/177/3 80/296/3 85/178/3
f 87/180/2 92/196/2 88/181/2
f 46/182/3 90/193/3 89/183/3
f 67/161/10 66/191/10 90/185/10
f 27/119/1 89/297/1 87/186/1
f 91/188/6 88/298/6 92/189/6
f 66/191/10 88/299/10 91/192/10
f 90/193/3 91/300/3 93/194/3
f 87/180/2 98/301/2 94/195/2
f 95/197/3 101/302/3 96/198/3
f 93/194/3 95/197/3 97/199/3
f 92/189/6 94/207/6 95/200/6
f 89/201/4 97/211/4 98/202/4
f 96/204/1 101/303/1 99/205/1
f 94/207/6 99/210/6 101/208/6
f 94/207/6 103/304/6 102/209/6
f 97/211/4 96/305/4 100/212/4
f 103/213/3 111/306/3 104/214/3
f 99/205/1 102/228/1 105/216/1
f 100/212/4 105/226/4 106/217/4
f 98/218/10 106/224/10 103/219/10
f 107/221/2 110/307/2 108/222/2
f 106/224/10 107/308/10 109/225/10
f 105/226/4 110/309/4 107/227/4
f 102/228/1 108/234/1 110/229/1
f 111/230/6 113/310/6 112/231/6
f 102/228/1 104/311/1 112/233/1
f 109/225/10 113/312/10 111/235/10
f 108/222/2 112/313/2 113/236/2
f 114/237/3 118/252/3 115/238/3
f 79/153/2 81/249/2 117/240/2
f 64/241/3 114/237/3 116/239/3
f 63/123/4 117/314/4 114/243/4
f 118/244/10 120/257/10 119/245/10
f 116/247/6 115/315/6 119/248/6
f 81/249/2 119/316/2 120/250/2
f 114/237/3 123/317/3 121/251/3
f 122/253/4 124/318/4 121/254/4
f 118/244/10 121/319/10 124/256/10
f 120/250/2 124/320/2 122/258/2
f 117/259/1 122/321/1 123/260/1
