# Blender v2.92.0 OBJ File: ''
# www.blender.org
o floor_Plane.003
v 11.000000 0.000000 -7.718429
v -17.056990 0.000000 -10.000000
v -17.056990 0.000000 -7.718429
v 11.000000 -0.000000 1.619098
v -17.056990 -0.000000 1.619098
v 11.000000 -0.000000 7.612638
v -17.056990 -0.000000 7.612638
v 11.000000 -0.000001 16.636028
v -17.056990 -0.000001 18.847229
v 11.000000 -0.000001 18.847229
v -17.076954 -0.000002 16.921547
v -100.979988 -0.000000 7.612638
v -100.999954 -0.000002 16.921547
v -101.056992 -0.000000 1.619098
v 11.000000 0.000000 -10.000000
v -101.056992 0.000000 -7.718429
v 11.000000 0.000000 -7.718429
v 11.000000 0.000000 -7.718429
v -17.056990 0.000000 -10.000000
v -17.056990 0.000000 -7.718429
v -17.056990 0.000000 -7.718429
v -17.056990 0.000000 -7.718429
v -17.056990 0.000000 -7.718429
v 11.000000 -0.000000 1.619098
v 11.000000 -0.000000 1.619098
v -17.056990 -0.000000 1.619098
v -17.056990 -0.000000 1.619098
v -17.056990 -0.000000 1.619098
v 11.000000 -0.000000 7.612638
v 11.000000 -0.000000 7.612638
v -17.056990 -0.000000 7.612638
v -17.056990 -0.000000 7.612638
v -17.056990 -0.000000 7.612638
v 11.000000 -0.000001 16.636028
v 11.000000 -0.000001 16.636028
v 11.000000 -0.000001 16.636028
v -17.056990 -0.000001 18.847229
v -17.076954 -0.000002 16.921547
v -17.076954 -0.000002 16.921547
v -17.076954 -0.000002 16.921547
v -100.979988 -0.000000 7.612638
v -101.056992 -0.000000 1.619098
vt -4.292450 -0.881651
vt -2.106693 -1.141271
vt -2.106693 -0.881648
vt -2.106693 -0.881648
vt -4.292451 0.180870
vt -4.292450 -0.881651
vt -2.106694 0.180873
vt -4.292451 0.862879
vt -4.292451 0.180870
vt -2.106694 0.862880
vt -4.292451 1.889654
vt -4.292451 0.862879
vt -4.292451 1.889654
vt -2.106694 2.141270
vt -4.292452 2.141272
vt -2.105139 1.922145
vt 4.431255 0.862889
vt 4.432811 1.922150
vt -2.106693 -0.881648
vt 4.437258 0.180884
vt -2.106694 0.180873
vt -4.292450 -0.881651
vt -4.292450 -1.141271
vt -2.106693 -1.141271
vt -2.106693 -0.881648
vt -2.106694 0.180873
vt -4.292451 0.180870
vt -2.106694 0.180873
vt -2.106694 0.862880
vt -4.292451 0.862879
vt -2.106694 0.862880
vt -2.105139 1.922145
vt -4.292451 1.889654
vt -4.292451 1.889654
vt -2.105139 1.922145
vt -2.106694 2.141270
vt -2.105139 1.922145
vt -2.106694 0.862880
vt 4.431255 0.862889
vt -2.106693 -0.881648
vt 4.437258 -0.881636
vt 4.437258 0.180884
vn 0.0000 1.0000 0.0000
s 1
f 17/1/1 19/2/1 20/3/1
f 21/4/1 24/5/1 1/6/1
f 26/7/1 29/8/1 25/9/1
f 31/10/1 34/11/1 30/12/1
f 35/13/1 37/14/1 10/15/1
f 39/16/1 41/17/1 13/18/1
f 22/19/1 42/20/1 27/21/1
f 18/22/1 15/23/1 2/24/1
f 3/25/1 5/26/1 4/27/1
f 28/28/1 7/29/1 6/30/1
f 32/31/1 38/32/1 36/33/1
f 8/34/1 40/35/1 9/36/1
f 11/37/1 33/38/1 12/39/1
f 23/40/1 16/41/1 14/42/1
