# Blender v2.92.0 OBJ File: ''
# www.blender.org
o Plane_Plane.013
v -101.060997 0.141677 24.090111
v -101.060997 2.141677 22.090111
v -101.060997 2.141677 24.090111
v -101.060997 0.141677 22.090111
v -101.060997 2.141677 18.684877
v -94.354317 0.141677 24.090111
v -94.354317 2.141677 24.090111
v -94.354317 0.141677 26.090111
v -94.354317 3.406934 24.090111
v -101.060997 3.406934 22.090111
v -94.354317 3.406934 26.090111
v -94.354317 2.141677 26.090111
v -101.060997 3.406934 24.090111
v -94.354317 8.208494 24.090111
v -94.354317 10.528711 26.090111
v -94.354317 8.208494 26.090111
v -101.060997 8.208494 18.684877
v -101.060997 10.528711 22.090111
v -101.060997 8.208494 22.090111
v -101.060997 8.208494 24.090111
v -94.354317 10.528711 24.090111
v -101.060997 10.528711 24.090111
v -101.060997 3.406934 18.684877
v -101.060997 8.208495 5.883699
v -101.060997 10.528712 5.883699
v -101.060997 10.528711 18.684877
v -101.060997 10.528712 3.337873
v -101.060997 8.208495 3.337873
v -101.060997 10.528713 -11.250530
v -101.060997 3.524328 -11.250530
v -101.060997 8.208496 -11.250530
v -101.060997 0.141677 18.684877
v -101.060997 3.406935 5.883699
v -101.060997 3.524328 3.337872
v -101.060997 0.141677 24.090111
v -101.060997 0.141677 24.090111
v -101.060997 2.141677 22.090111
v -101.060997 2.141677 22.090111
v -101.060997 2.141677 22.090111
v -101.060997 2.141677 22.090111
v -101.060997 2.141677 22.090111
v -101.060997 2.141677 24.090111
v -101.060997 2.141677 24.090111
v -101.060997 2.141677 24.090111
v -101.060997 2.141677 24.090111
v -101.060997 2.141677 24.090111
v -101.060997 0.141677 22.090111
v -101.060997 0.141677 22.090111
v -101.060997 2.141677 18.684877
v -101.060997 2.141677 18.684877
v -101.060997 2.141677 18.684877
v -94.354317 0.141677 24.090111
v -94.354317 0.141677 24.090111
v -94.354317 2.141677 24.090111
v -94.354317 2.141677 24.090111
v -94.354317 2.141677 24.090111
v -94.354317 2.141677 24.090111
v -94.354317 2.141677 24.090111
v -94.354317 0.141677 26.090111
v -94.354317 3.406934 24.090111
v -94.354317 3.406934 24.090111
v -94.354317 3.406934 24.090111
v -94.354317 3.406934 24.090111
v -94.354317 3.406934 24.090111
v -101.060997 3.406934 22.090111
v -101.060997 3.406934 22.090111
v -101.060997 3.406934 22.090111
v -101.060997 3.406934 22.090111
v -101.060997 3.406934 22.090111
v -94.354317 3.406934 26.090111
v -94.354317 3.406934 26.090111
v -94.354317 2.141677 26.090111
v -101.060997 3.406934 24.090111
v -101.060997 3.406934 24.090111
v -101.060997 3.406934 24.090111
v -101.060997 3.406934 24.090111
v -101.060997 3.406934 24.090111
v -94.354317 8.208494 24.090111
v -94.354317 8.208494 24.090111
v -94.354317 8.208494 24.090111
v -94.354317 8.208494 24.090111
v -94.354317 8.208494 24.090111
v -94.354317 10.528711 26.090111
v -94.354317 8.208494 26.090111
v -94.354317 8.208494 26.090111
v -101.060997 8.208494 18.684877
v -101.060997 8.208494 18.684877
v -101.060997 8.208494 18.684877
v -101.060997 8.208494 18.684877
v -101.060997 8.208494 18.684877
v -101.060997 10.528711 22.090111
v -101.060997 10.528711 22.090111
v -101.060997 8.208494 22.090111
v -101.060997 8.208494 22.090111
v -101.060997 8.208494 22.090111
v -101.060997 8.208494 22.090111
v -101.060997 8.208494 22.090111
v -101.060997 8.208494 24.090111
v -101.060997 8.208494 24.090111
v -101.060997 8.208494 24.090111
v -101.060997 8.208494 24.090111
v -101.060997 8.208494 24.090111
v -94.354317 10.528711 24.090111
v -94.354317 10.528711 24.090111
v -101.060997 10.528711 24.090111
v -101.060997 10.528711 24.090111
v -101.060997 3.406934 18.684877
v -101.060997 3.406934 18.684877
v -101.060997 3.406934 18.684877
v -101.060997 3.406934 18.684877
v -101.060997 8.208495 5.883699
v -101.060997 8.208495 5.883699
v -101.060997 8.208495 5.883699
v -101.060997 8.208495 5.883699
v -101.060997 10.528712 5.883699
v -101.060997 10.528712 5.883699
v -101.060997 10.528711 18.684877
v -101.060997 10.528712 3.337873
v -101.060997 10.528712 3.337873
v -101.060997 8.208495 3.337873
v -101.060997 8.208495 3.337873
v -101.060997 8.208495 3.337873
v -101.060997 8.208495 3.337873
v -101.060997 10.528713 -11.250530
v -101.060997 8.208496 -11.250530
v -101.060997 3.524328 -11.250530
vt 0.267771 0.352581
vt 0.302680 0.404950
vt 0.267771 0.404950
vt 0.302680 0.352581
vt 0.362116 0.404950
vt 0.302680 0.404950
vt 0.267771 0.404950
vt 0.150710 0.352581
vt 0.267771 0.352581
vt 0.150710 0.404950
vt 0.115801 0.352581
vt 0.150710 0.352581
vt 0.267771 0.404950
vt 0.150710 0.438080
vt 0.150710 0.404950
vt 0.362116 0.404950
vt 0.302680 0.438080
vt 0.302680 0.404950
vt 0.150710 0.404950
vt 0.115801 0.438080
vt 0.115801 0.404950
vt 0.302680 0.404950
vt 0.267771 0.438080
vt 0.267771 0.404950
vt 0.150710 0.563805
vt 0.115801 0.624558
vt 0.115801 0.563805
vt 0.362116 0.563805
vt 0.302680 0.624558
vt 0.302680 0.563805
vt 0.267771 0.563805
vt 0.150710 0.624558
vt 0.150710 0.563805
vt 0.302680 0.563805
vt 0.267771 0.624558
vt 0.267771 0.563805
vt 0.362116 0.438079
vt 0.585553 0.563805
vt 0.362116 0.563805
vt 0.362116 0.563805
vt 0.585553 0.624558
vt 0.362116 0.624558
vt 0.302680 0.438080
vt 0.267771 0.563805
vt 0.267771 0.438080
vt 0.267771 0.438080
vt 0.150710 0.563805
vt 0.150710 0.438080
vt 0.362116 0.438079
vt 0.302680 0.563805
vt 0.302680 0.438080
vt 0.150710 0.438080
vt 0.115801 0.563805
vt 0.115801 0.438080
vt 0.585553 0.563805
vt 0.629989 0.624558
vt 0.585553 0.624558
vt 0.629989 0.563805
vt 0.884621 0.624558
vt 0.629989 0.624558
vt 0.629989 0.563805
vt 0.884621 0.441154
vt 0.884621 0.563805
vt 0.267771 0.352581
vt 0.302680 0.352581
vt 0.302680 0.404950
vt 0.302680 0.352581
vt 0.362116 0.352581
vt 0.362116 0.404950
vt 0.267771 0.404950
vt 0.150710 0.404950
vt 0.150710 0.352581
vt 0.150710 0.404950
vt 0.115801 0.404950
vt 0.115801 0.352581
vt 0.267771 0.404950
vt 0.267771 0.438080
vt 0.150710 0.438080
vt 0.362116 0.404950
vt 0.362116 0.438079
vt 0.302680 0.438080
vt 0.150710 0.404950
vt 0.150710 0.438080
vt 0.115801 0.438080
vt 0.302680 0.404950
vt 0.302680 0.438080
vt 0.267771 0.438080
vt 0.150710 0.563805
vt 0.150710 0.624558
vt 0.115801 0.624558
vt 0.362116 0.563805
vt 0.362116 0.624558
vt 0.302680 0.624558
vt 0.267771 0.563805
vt 0.267771 0.624558
vt 0.150710 0.624558
vt 0.302680 0.563805
vt 0.302680 0.624558
vt 0.267771 0.624558
vt 0.362116 0.438079
vt 0.585553 0.438079
vt 0.585553 0.563805
vt 0.362116 0.563805
vt 0.585553 0.563805
vt 0.585553 0.624558
vt 0.302680 0.438080
vt 0.302680 0.563805
vt 0.267771 0.563805
vt 0.267771 0.438080
vt 0.267771 0.563805
vt 0.150710 0.563805
vt 0.362116 0.438079
vt 0.362116 0.563805
vt 0.302680 0.563805
vt 0.150710 0.438080
vt 0.150710 0.563805
vt 0.115801 0.563805
vt 0.585553 0.563805
vt 0.629989 0.563805
vt 0.629989 0.624558
vt 0.629989 0.563805
vt 0.884621 0.563805
vt 0.884621 0.624558
vt 0.629989 0.563805
vt 0.629989 0.441153
vt 0.884621 0.441154
vn 1.0000 0.0000 0.0000
vn 0.0000 0.0000 -1.0000
s 1
f 35/1/1 37/2/1 42/3/1
f 47/4/1 49/5/1 38/6/1
f 43/7/2 52/8/2 1/9/2
f 54/10/1 59/11/1 53/12/1
f 44/13/2 60/14/2 56/15/2
f 50/16/1 65/17/1 40/18/1
f 55/19/1 70/20/1 72/21/1
f 39/22/1 73/23/1 45/24/1
f 79/25/1 83/26/1 84/27/1
f 86/28/1 91/29/1 93/30/1
f 98/31/2 103/32/2 80/33/2
f 94/34/1 105/35/1 99/36/1
f 107/37/1 111/38/1 87/39/1
f 88/40/1 115/41/1 117/42/1
f 66/43/1 100/44/1 75/45/1
f 74/46/2 78/47/2 62/48/2
f 110/49/1 95/50/1 67/51/1
f 61/52/1 85/53/1 71/54/1
f 112/55/1 119/56/1 116/57/1
f 120/58/1 124/59/1 118/60/1
f 121/61/1 126/62/1 125/63/1
f 36/64/1 48/65/1 41/66/1
f 4/67/1 32/68/1 5/69/1
f 46/70/2 57/71/2 6/72/2
f 58/73/1 12/74/1 8/75/1
f 3/76/2 77/77/2 63/78/2
f 51/79/1 109/80/1 69/81/1
f 7/82/1 64/83/1 11/84/1
f 2/85/1 68/86/1 76/87/1
f 14/88/1 21/89/1 15/90/1
f 89/91/1 26/92/1 92/93/1
f 20/94/2 106/95/2 104/96/2
f 19/97/1 18/98/1 22/99/1
f 108/100/1 33/101/1 114/102/1
f 17/103/1 24/104/1 25/105/1
f 10/106/1 96/107/1 101/108/1
f 13/109/2 102/110/2 82/111/2
f 23/112/1 90/113/1 97/114/1
f 9/115/1 81/116/1 16/117/1
f 113/118/1 123/119/1 27/120/1
f 28/121/1 31/122/1 29/123/1
f 122/124/1 34/125/1 30/126/1
